<svg version="1.2" xmlns="http://www.w3.org/2000/svg" viewBox="0 0 30 30" width="30" height="30"><style>.a{fill:#fff;stroke:#fff;stroke-width:.2}</style><path fill-rule="evenodd" class="a" d="m0 25.6h3.6v-24c0-0.2 0.2-0.4 0.4-0.4h12.1c0.2 0 0.4 0.2 0.4 0.4v9h10.8c0.2 0 0.4 0.2 0.4 0.4v14.6h2.3v3.2h-30zm5.4-1h9.3v-21.6h-9.3zm5.3-4.8h2.8v3.3h-2.8zm-4.2 0h2.8v3.3h-2.8zm4.2-5h2.8v3.3h-2.8zm-4.2 0h2.8v3.3h-2.8zm4.2-5h2.8v3.3h-2.8zm-4.2 0h2.8v3.3h-2.8zm4.2-5h2.8v3.2h-2.8zm-4.2 0h2.8v3.3h-2.8zm10 19.8h9.3v-12.2h-9.3zm5.3-4.8h2.8v3.3h-2.8zm-4.2 0h2.7v3.3h-2.7zm4.2-5.6h2.8v3.3h-2.8zm-4.2 0h2.7v3.3h-2.7z"/></svg>