<svg version="1.2" xmlns="http://www.w3.org/2000/svg" viewBox="0 0 30 30" width="30" height="30"><style>.a{fill:#fff;stroke:#fff;stroke-width:0}</style><path fill-rule="evenodd" class="a" d="m2.8 9.4h24.4q0.2 0 0.3 0 0.2 0.1 0.4 0.2 0.1 0.2 0.2 0.4 0 0.1 0 0.3v15q0 0.2 0 0.4-0.1 0.1-0.2 0.3-0.2 0.1-0.4 0.2-0.1 0-0.3 0h-24.4q-0.2 0-0.3 0-0.2-0.1-0.4-0.2-0.1-0.2-0.2-0.3 0-0.2 0-0.4v-15q0-0.2 0-0.3 0.1-0.2 0.2-0.4 0.2-0.1 0.4-0.2 0.1 0 0.3 0zm1 15h22.4l0.1-13.2h-22.5zm0.9-18.7h20.6v1.9h-20.6zm2.8-3.8h15v1.9h-15z"/></svg>