<svg version="1.2" xmlns="http://www.w3.org/2000/svg" viewBox="0 0 30 30" width="30" height="30"><style>.a{fill:none;stroke:#fff;stroke-linecap:round;stroke-linejoin:round;stroke-width:2.5}</style><path class="a" d="m26.3 10l-4.6 2.5c-2.3 1.4-3.6 2-5 2.3q-1.7 0.3-3.5 0c-1.3-0.3-2.6-0.9-5-2.3l-4.5-2.5"/><path fill-rule="evenodd" class="a" d="m7.8 23.8l14.4-0.1c1.4 0 2.2 0 2.7-0.2q0.7-0.4 1.1-1.1c0.2-0.5 0.2-1.3 0.2-2.6v-9.5c0-1.4 0-2.2-0.2-2.7q-0.4-0.7-1.1-1.1c-0.5-0.2-1.3-0.2-2.7-0.2h-14.4c-1.4 0-2.2 0-2.7 0.2q-0.7 0.4-1.1 1.1c-0.2 0.5-0.2 1.3-0.2 2.7v9.5c0 1.3 0 2.1 0.2 2.6q0.4 0.7 1.1 1.1c0.5 0.2 1.3 0.2 2.7 0.2z"/></svg>