<svg version="1.2" xmlns="http://www.w3.org/2000/svg" viewBox="0 0 30 30" width="30" height="30"><style>.a{fill:none;stroke:#fff;stroke-linecap:round;stroke-linejoin:round;stroke-width:2.5}</style><path fill-rule="evenodd" class="a" d="m17.5 8.1q0 0.5 0.1 0.9 0.1 0.4 0.2 0.8 0.2 0.4 0.5 0.8 0.2 0.3 0.5 0.7h-11.9c-0.9 0-1.6-0.4-2.2-1-0.6-0.6-0.9-1.3-0.9-2.2 0-0.8 0.3-1.6 0.9-2.2 0.6-0.6 1.3-0.9 2.2-0.9h11.9q-0.3 0.3-0.5 0.7-0.3 0.3-0.5 0.7-0.1 0.4-0.2 0.9-0.1 0.4-0.1 0.8z"/><path fill-rule="evenodd" class="a" d="m26.3 7.8c-0.1-0.9-0.4-1.7-0.9-2.3-0.5-0.7-1.2-1.2-2-1.5-0.8-0.3-1.6-0.3-2.4-0.2-0.8 0.2-1.6 0.6-2.2 1.2-0.6 0.6-1 1.4-1.2 2.2-0.2 0.9-0.1 1.8 0.2 2.6 0.4 0.8 0.9 1.5 1.6 2 0.8 0.4 1.6 0.7 2.5 0.7q0.8 0 1.6-0.3 0.7-0.3 1.3-0.8 0.7-0.6 1-1.3 0.4-0.8 0.4-1.6 0.1 0 0.1-0.1 0 0 0-0.1 0 0 0-0.1 0 0-0.1-0.1 0.1 0 0.1-0.1 0 0 0-0.1 0 0 0-0.1 0 0-0.1 0z"/><path fill-rule="evenodd" class="a" d="m12.5 21.9q0-0.5-0.1-0.9-0.1-0.4-0.2-0.8-0.2-0.4-0.5-0.8-0.2-0.3-0.5-0.7l11.9 0.1c0.9 0 1.6 0.3 2.2 0.9 0.6 0.6 0.9 1.3 0.9 2.2 0 0.8-0.3 1.6-0.9 2.2-0.6 0.6-1.3 0.9-2.2 0.9h-11.9q0.3-0.3 0.5-0.7 0.3-0.3 0.5-0.7 0.1-0.4 0.2-0.9 0.1-0.4 0.1-0.8z"/><path fill-rule="evenodd" class="a" d="m3.8 22.3c0 0.8 0.3 1.6 0.8 2.2 0.5 0.7 1.2 1.2 2 1.5 0.8 0.3 1.6 0.3 2.4 0.2 0.8-0.2 1.6-0.6 2.2-1.2 0.6-0.6 1-1.4 1.2-2.2 0.2-0.9 0.1-1.8-0.2-2.6-0.4-0.8-0.9-1.5-1.6-2-0.8-0.4-1.6-0.7-2.5-0.7q-0.8 0-1.6 0.3-0.7 0.3-1.3 0.8-0.7 0.6-1 1.3-0.4 0.8-0.4 1.6-0.1 0.1-0.1 0.2 0 0.1 0 0.2 0 0.1 0 0.2 0 0.1 0.1 0.1z"/></svg>