<svg version="1.2" xmlns="http://www.w3.org/2000/svg" viewBox="0 0 15 15" width="15" height="15"><style>.a{fill:#fff;stroke:#fff;stroke-width:0}</style><path fill-rule="evenodd" class="a" d="m11.2 9.6h-10l-1.2-6.6h11.7l0.4-1.7h2.9v1.1h-2l-1.8 7.2zm-9.8-5.5l0.8 4.4h8.1l1.1-4.4z"/><path fill-rule="evenodd" class="a" d="m7.8 11.9q0-0.4 0.1-0.7h-3.4q0.1 0.3 0.1 0.7c0 1-0.8 1.8-1.8 1.8-1 0-1.8-0.8-1.8-1.8 0-1 0.8-1.8 1.8-1.8h6.8c1 0 1.8 0.8 1.8 1.8 0 1-0.8 1.8-1.8 1.8-1 0-1.8-0.8-1.8-1.8zm-4.3 0c0-0.4-0.3-0.7-0.7-0.7-0.4 0-0.7 0.3-0.7 0.7 0 0.4 0.3 0.7 0.7 0.7 0.4 0 0.7-0.3 0.7-0.7zm6.8 0c0-0.4-0.3-0.7-0.7-0.7-0.4 0-0.7 0.3-0.7 0.7 0 0.4 0.3 0.7 0.7 0.7 0.4 0 0.7-0.3 0.7-0.7z"/></svg>