<!DOCTYPE svg PUBLIC "-//W3C//DTD SVG 1.1//EN" "http://www.w3.org/Graphics/SVG/1.1/DTD/svg11.dtd">
<!-- Uploaded to: SVG Repo, www.svgrepo.com, Transformed by: SVG Repo Mixer Tools -->
<svg fill="#f8960d" version="1.1" id="Layer_1" xmlns="http://www.w3.org/2000/svg" xmlns:xlink="http://www.w3.org/1999/xlink" viewBox="0 0 206.502 206.502" xml:space="preserve" width="64px" height="64px" stroke="#f8960d">
<g id="SVGRepo_bgCarrier" stroke-width="0"/>
<g id="SVGRepo_tracerCarrier" stroke-linecap="round" stroke-linejoin="round"/>
<g id="SVGRepo_iconCarrier"> <g> <g> <g> <path d="M206.31,142.358c-0.489-1.412-1.816-2.357-3.309-2.357h-7v-42c0-1.933-1.567-3.5-3.5-3.5h-10.5v-28 c0-1.933-1.567-3.5-3.5-3.5h-87.5v-38.5c0-1.933-1.567-3.5-3.5-3.5h-38.5c-1.933,0-3.5,1.567-3.5,3.5v38.5h-17.5 c-1.933,0-3.5,1.567-3.5,3.5v28h-10.5c-1.933,0-3.5,1.567-3.5,3.5v42h-7c-1.492,0-2.82,0.945-3.309,2.357 c-0.487,1.41-0.027,2.974,1.147,3.895l49,38.5c0.617,0.485,1.378,0.749,2.162,0.749h101.5c0.784,0,1.545-0.263,2.162-0.749 l49-38.5C206.338,145.332,206.797,143.768,206.31,142.358z M52.502,28.002h31.5v35h-31.5V28.002z M49.002,70.002h38.5h87.5v24.5 h-143.5c0,0,0-24.5,0-24.5H49.002z M28.002,101.502h150.5h10.5v38.5h-171.5c0,0,0-38.5,0-38.5H28.002z M152.792,178.502h-99.08 l-40.091-31.5h0.381h178.5h0.381L152.792,178.502z"/> <rect x="59.502" y="35.002" width="17.5" height="7"/> <rect x="24.502" y="108.502" width="14" height="7"/> <rect x="66.502" y="108.502" width="14" height="7"/> <rect x="108.502" y="108.502" width="14" height="7"/> <rect x="45.502" y="108.502" width="14" height="7"/> <rect x="87.502" y="108.502" width="14" height="7"/> <rect x="129.502" y="108.502" width="14" height="7"/> <rect x="150.502" y="108.502" width="14" height="7"/> <rect x="35.002" y="126.002" width="14" height="7"/> <rect x="77.002" y="126.002" width="14" height="7"/> <rect x="119.002" y="126.002" width="14" height="7"/> <rect x="56.002" y="126.002" width="14" height="7"/> <rect x="98.002" y="126.002" width="14" height="7"/> <rect x="140.002" y="126.002" width="14" height="7"/> <rect x="161.002" y="126.002" width="14" height="7"/> <rect x="38.502" y="77.002" width="63.109" height="7"/> <rect x="105.002" y="77.002" width="63.109" height="7"/> </g> </g> </g> </g>
</svg>